<mxfile host="app.diagrams.net" modified="2024-06-04T03:16:19.204Z" agent="Mozilla/5.0 (Windows NT 10.0; Win64; x64) AppleWebKit/537.36 (KHTML, like Gecko) Chrome/125.0.0.0 Safari/537.36 Edg/125.0.0.0" etag="JCR_F1aec_xfzU1XrnAJ" version="24.4.13" type="device">
  <diagram name="Page-1" id="9f46799a-70d6-7492-0946-bef42562c5a5">
    <mxGraphModel dx="1708" dy="842" grid="1" gridSize="10" guides="1" tooltips="1" connect="1" arrows="1" fold="1" page="1" pageScale="1" pageWidth="1100" pageHeight="850" background="none" math="0" shadow="0">
      <root>
        <mxCell id="0" />
        <mxCell id="1" parent="0" />
        <mxCell id="78961159f06e98e8-17" value="Eventos [100K]" style="swimlane;html=1;fontStyle=1;align=center;verticalAlign=top;childLayout=stackLayout;horizontal=1;startSize=26;horizontalStack=0;resizeParent=1;resizeLast=0;collapsible=1;marginBottom=0;swimlaneFillColor=#ffffff;rounded=0;shadow=0;comic=0;labelBackgroundColor=none;strokeWidth=1;fillColor=none;fontFamily=Verdana;fontSize=12" parent="1" vertex="1">
          <mxGeometry x="285" y="64" width="210" height="722" as="geometry" />
        </mxCell>
        <mxCell id="QMrxIAQurazq6CiOPDvt-56" value="+ _id: &amp;lt;objectId&amp;gt;" style="text;html=1;strokeColor=none;fillColor=none;align=left;verticalAlign=top;spacingLeft=4;spacingRight=4;whiteSpace=wrap;overflow=hidden;rotatable=0;points=[[0,0.5],[1,0.5]];portConstraint=eastwest;" vertex="1" parent="78961159f06e98e8-17">
          <mxGeometry y="26" width="210" height="26" as="geometry" />
        </mxCell>
        <mxCell id="78961159f06e98e8-21" value="+ titulo: &amp;lt;string&amp;gt;" style="text;html=1;strokeColor=none;fillColor=none;align=left;verticalAlign=top;spacingLeft=4;spacingRight=4;whiteSpace=wrap;overflow=hidden;rotatable=0;points=[[0,0.5],[1,0.5]];portConstraint=eastwest;" parent="78961159f06e98e8-17" vertex="1">
          <mxGeometry y="52" width="210" height="26" as="geometry" />
        </mxCell>
        <mxCell id="QMrxIAQurazq6CiOPDvt-53" value="+ titulo: &amp;lt;string&amp;gt;" style="text;html=1;strokeColor=none;fillColor=none;align=left;verticalAlign=top;spacingLeft=4;spacingRight=4;whiteSpace=wrap;overflow=hidden;rotatable=0;points=[[0,0.5],[1,0.5]];portConstraint=eastwest;" vertex="1" parent="78961159f06e98e8-17">
          <mxGeometry y="78" width="210" height="26" as="geometry" />
        </mxCell>
        <mxCell id="78961159f06e98e8-23" value="+ descripcion: &amp;lt;string&amp;gt;" style="text;html=1;strokeColor=none;fillColor=none;align=left;verticalAlign=top;spacingLeft=4;spacingRight=4;whiteSpace=wrap;overflow=hidden;rotatable=0;points=[[0,0.5],[1,0.5]];portConstraint=eastwest;" parent="78961159f06e98e8-17" vertex="1">
          <mxGeometry y="104" width="210" height="26" as="geometry" />
        </mxCell>
        <mxCell id="78961159f06e98e8-25" value="+ categorias[1, 12]:&lt;span style=&quot;background-color: initial;&quot;&gt;&amp;nbsp;&amp;lt;string&amp;gt;&lt;/span&gt;" style="text;html=1;strokeColor=none;fillColor=none;align=left;verticalAlign=top;spacingLeft=4;spacingRight=4;whiteSpace=wrap;overflow=hidden;rotatable=0;points=[[0,0.5],[1,0.5]];portConstraint=eastwest;" parent="78961159f06e98e8-17" vertex="1">
          <mxGeometry y="130" width="210" height="26" as="geometry" />
        </mxCell>
        <mxCell id="78961159f06e98e8-26" value="+ fecha: &amp;lt;date&amp;gt;" style="text;html=1;strokeColor=none;fillColor=none;align=left;verticalAlign=top;spacingLeft=4;spacingRight=4;whiteSpace=wrap;overflow=hidden;rotatable=0;points=[[0,0.5],[1,0.5]];portConstraint=eastwest;" parent="78961159f06e98e8-17" vertex="1">
          <mxGeometry y="156" width="210" height="26" as="geometry" />
        </mxCell>
        <mxCell id="QMrxIAQurazq6CiOPDvt-23" value="+ facultades_org [1,20]&lt;span style=&quot;background-color: initial;&quot;&gt;: &amp;lt;string&amp;gt;&lt;/span&gt;" style="text;html=1;strokeColor=none;fillColor=none;align=left;verticalAlign=top;spacingLeft=4;spacingRight=4;whiteSpace=wrap;overflow=hidden;rotatable=0;points=[[0,0.5],[1,0.5]];portConstraint=eastwest;" vertex="1" parent="78961159f06e98e8-17">
          <mxGeometry y="182" width="210" height="26" as="geometry" />
        </mxCell>
        <mxCell id="78961159f06e98e8-24" value="+ facilitadores [1,5]&lt;span style=&quot;background-color: initial;&quot;&gt;: &amp;lt;string&amp;gt;&lt;/span&gt;" style="text;html=1;strokeColor=none;fillColor=none;align=left;verticalAlign=top;spacingLeft=4;spacingRight=4;whiteSpace=wrap;overflow=hidden;rotatable=0;points=[[0,0.5],[1,0.5]];portConstraint=eastwest;" parent="78961159f06e98e8-17" vertex="1">
          <mxGeometry y="208" width="210" height="26" as="geometry" />
        </mxCell>
        <mxCell id="QMrxIAQurazq6CiOPDvt-34" value="+ programa_org&lt;span style=&quot;background-color: initial;&quot;&gt;: &amp;lt;string&amp;gt;&lt;/span&gt;" style="text;html=1;strokeColor=none;fillColor=none;align=left;verticalAlign=top;spacingLeft=4;spacingRight=4;whiteSpace=wrap;overflow=hidden;rotatable=0;points=[[0,0.5],[1,0.5]];portConstraint=eastwest;" vertex="1" parent="78961159f06e98e8-17">
          <mxGeometry y="234" width="210" height="26" as="geometry" />
        </mxCell>
        <mxCell id="QMrxIAQurazq6CiOPDvt-17" value="+ asistences [0,1,600]&lt;span style=&quot;background-color: initial;&quot;&gt;: &amp;lt;string&amp;gt;&lt;/span&gt;" style="text;html=1;strokeColor=none;fillColor=none;align=left;verticalAlign=top;spacingLeft=4;spacingRight=4;whiteSpace=wrap;overflow=hidden;rotatable=0;points=[[0,0.5],[1,0.5]];portConstraint=eastwest;" vertex="1" parent="78961159f06e98e8-17">
          <mxGeometry y="260" width="210" height="26" as="geometry" />
        </mxCell>
        <mxCell id="QMrxIAQurazq6CiOPDvt-18" value="Conferencistas [1,20]&lt;div&gt;&lt;br&gt;&lt;/div&gt;" style="swimlane;html=1;fontStyle=1;align=center;verticalAlign=top;childLayout=stackLayout;horizontal=1;startSize=26;horizontalStack=0;resizeParent=0;resizeLast=0;collapsible=1;marginBottom=0;marginLeft=1;swimlaneFillColor=#ffffff;rounded=0;shadow=1;comic=0;labelBackgroundColor=none;strokeWidth=1;fillColor=none;fontFamily=Verdana;fontSize=12;strokeColor=#FF0B03;" vertex="1" parent="78961159f06e98e8-17">
          <mxGeometry y="286" width="210" height="112" as="geometry">
            <mxRectangle y="208" width="210" height="30" as="alternateBounds" />
          </mxGeometry>
        </mxCell>
        <mxCell id="QMrxIAQurazq6CiOPDvt-21" value="+ identificacion: &amp;lt;string&amp;gt;" style="text;html=1;strokeColor=none;fillColor=none;align=left;verticalAlign=top;spacingLeft=4;spacingRight=4;whiteSpace=wrap;overflow=hidden;rotatable=0;points=[[0,0.5],[1,0.5]];portConstraint=eastwest;" vertex="1" parent="QMrxIAQurazq6CiOPDvt-18">
          <mxGeometry x="1" y="26" width="209" height="26" as="geometry" />
        </mxCell>
        <mxCell id="QMrxIAQurazq6CiOPDvt-19" value="+ nombre_completo: &amp;lt;string&amp;gt;" style="text;html=1;strokeColor=none;fillColor=none;align=left;verticalAlign=top;spacingLeft=4;spacingRight=4;whiteSpace=wrap;overflow=hidden;rotatable=0;points=[[0,0.5],[1,0.5]];portConstraint=eastwest;" vertex="1" parent="QMrxIAQurazq6CiOPDvt-18">
          <mxGeometry x="1" y="52" width="209" height="26" as="geometry" />
        </mxCell>
        <mxCell id="QMrxIAQurazq6CiOPDvt-20" value="+ tipo_relacion: &amp;lt;string&amp;gt;" style="text;html=1;strokeColor=none;fillColor=none;align=left;verticalAlign=top;spacingLeft=4;spacingRight=4;whiteSpace=wrap;overflow=hidden;rotatable=0;points=[[0,0.5],[1,0.5]];portConstraint=eastwest;" vertex="1" parent="QMrxIAQurazq6CiOPDvt-18">
          <mxGeometry x="1" y="78" width="209" height="26" as="geometry" />
        </mxCell>
        <mxCell id="QMrxIAQurazq6CiOPDvt-5" value="Lugar[1]" style="swimlane;html=1;fontStyle=1;align=center;verticalAlign=top;childLayout=stackLayout;horizontal=1;startSize=26;horizontalStack=0;resizeParent=1;resizeLast=0;collapsible=1;marginBottom=0;swimlaneFillColor=#ffffff;rounded=0;shadow=1;comic=0;labelBackgroundColor=none;strokeWidth=1;fillColor=none;fontFamily=Verdana;fontSize=12;rotation=0;strokeColor=#0000FF;" vertex="1" parent="78961159f06e98e8-17">
          <mxGeometry y="398" width="210" height="190" as="geometry">
            <mxRectangle y="320" width="210" height="30" as="alternateBounds" />
          </mxGeometry>
        </mxCell>
        <mxCell id="QMrxIAQurazq6CiOPDvt-6" value="+ nombre: &amp;lt;string&amp;gt;" style="text;html=1;strokeColor=none;fillColor=none;align=left;verticalAlign=top;spacingLeft=4;spacingRight=4;whiteSpace=wrap;overflow=hidden;rotatable=0;points=[[0,0.5],[1,0.5]];portConstraint=eastwest;" vertex="1" parent="QMrxIAQurazq6CiOPDvt-5">
          <mxGeometry y="26" width="210" height="26" as="geometry" />
        </mxCell>
        <mxCell id="QMrxIAQurazq6CiOPDvt-7" value="+ direccion: &amp;lt;string&amp;gt;" style="text;html=1;strokeColor=none;fillColor=none;align=left;verticalAlign=top;spacingLeft=4;spacingRight=4;whiteSpace=wrap;overflow=hidden;rotatable=0;points=[[0,0.5],[1,0.5]];portConstraint=eastwest;" vertex="1" parent="QMrxIAQurazq6CiOPDvt-5">
          <mxGeometry y="52" width="210" height="26" as="geometry" />
        </mxCell>
        <mxCell id="QMrxIAQurazq6CiOPDvt-13" value="Ciudad [1]" style="swimlane;html=1;fontStyle=1;align=center;verticalAlign=top;childLayout=stackLayout;horizontal=1;startSize=26;horizontalStack=0;resizeParent=0;resizeLast=0;collapsible=1;marginBottom=0;marginLeft=1;swimlaneFillColor=#ffffff;rounded=0;shadow=1;comic=0;labelBackgroundColor=none;strokeWidth=1;fillColor=none;fontFamily=Verdana;fontSize=12;strokeColor=#009900;" vertex="1" parent="QMrxIAQurazq6CiOPDvt-5">
          <mxGeometry y="78" width="210" height="112" as="geometry">
            <mxRectangle y="78" width="210" height="30" as="alternateBounds" />
          </mxGeometry>
        </mxCell>
        <mxCell id="QMrxIAQurazq6CiOPDvt-14" value="+ nombre: &amp;lt;string&amp;gt;" style="text;html=1;strokeColor=none;fillColor=none;align=left;verticalAlign=top;spacingLeft=4;spacingRight=4;whiteSpace=wrap;overflow=hidden;rotatable=0;points=[[0,0.5],[1,0.5]];portConstraint=eastwest;" vertex="1" parent="QMrxIAQurazq6CiOPDvt-13">
          <mxGeometry x="1" y="26" width="209" height="26" as="geometry" />
        </mxCell>
        <mxCell id="QMrxIAQurazq6CiOPDvt-15" value="+ departamento: &amp;lt;string&amp;gt;" style="text;html=1;strokeColor=none;fillColor=none;align=left;verticalAlign=top;spacingLeft=4;spacingRight=4;whiteSpace=wrap;overflow=hidden;rotatable=0;points=[[0,0.5],[1,0.5]];portConstraint=eastwest;" vertex="1" parent="QMrxIAQurazq6CiOPDvt-13">
          <mxGeometry x="1" y="52" width="209" height="26" as="geometry" />
        </mxCell>
        <mxCell id="QMrxIAQurazq6CiOPDvt-16" value="+ pais: &amp;lt;string&amp;gt;" style="text;html=1;strokeColor=none;fillColor=none;align=left;verticalAlign=top;spacingLeft=4;spacingRight=4;whiteSpace=wrap;overflow=hidden;rotatable=0;points=[[0,0.5],[1,0.5]];portConstraint=eastwest;" vertex="1" parent="QMrxIAQurazq6CiOPDvt-13">
          <mxGeometry x="1" y="78" width="209" height="26" as="geometry" />
        </mxCell>
        <mxCell id="QMrxIAQurazq6CiOPDvt-24" value="Comentarios [0,600]&lt;div&gt;&lt;br&gt;&lt;/div&gt;" style="swimlane;html=1;fontStyle=1;align=center;verticalAlign=top;childLayout=stackLayout;horizontal=1;startSize=26;horizontalStack=0;resizeParent=0;resizeLast=0;collapsible=1;marginBottom=0;marginLeft=1;swimlaneFillColor=#ffffff;rounded=0;shadow=1;comic=0;labelBackgroundColor=none;strokeWidth=1;fillColor=none;fontFamily=Verdana;fontSize=12;strokeColor=#6600CC;" vertex="1" parent="78961159f06e98e8-17">
          <mxGeometry y="588" width="210" height="134" as="geometry">
            <mxRectangle y="556" width="210" height="30" as="alternateBounds" />
          </mxGeometry>
        </mxCell>
        <mxCell id="QMrxIAQurazq6CiOPDvt-25" value="+ identificacion: &amp;lt;string&amp;gt;" style="text;html=1;strokeColor=none;fillColor=none;align=left;verticalAlign=top;spacingLeft=4;spacingRight=4;whiteSpace=wrap;overflow=hidden;rotatable=0;points=[[0,0.5],[1,0.5]];portConstraint=eastwest;" vertex="1" parent="QMrxIAQurazq6CiOPDvt-24">
          <mxGeometry x="1" y="26" width="209" height="26" as="geometry" />
        </mxCell>
        <mxCell id="QMrxIAQurazq6CiOPDvt-26" value="+ nombre_usuario: &amp;lt;string&amp;gt;" style="text;html=1;strokeColor=none;fillColor=none;align=left;verticalAlign=top;spacingLeft=4;spacingRight=4;whiteSpace=wrap;overflow=hidden;rotatable=0;points=[[0,0.5],[1,0.5]];portConstraint=eastwest;" vertex="1" parent="QMrxIAQurazq6CiOPDvt-24">
          <mxGeometry x="1" y="52" width="209" height="26" as="geometry" />
        </mxCell>
        <mxCell id="QMrxIAQurazq6CiOPDvt-27" value="+ fecha: &amp;lt;date&amp;gt;" style="text;html=1;strokeColor=none;fillColor=none;align=left;verticalAlign=top;spacingLeft=4;spacingRight=4;whiteSpace=wrap;overflow=hidden;rotatable=0;points=[[0,0.5],[1,0.5]];portConstraint=eastwest;" vertex="1" parent="QMrxIAQurazq6CiOPDvt-24">
          <mxGeometry x="1" y="78" width="209" height="26" as="geometry" />
        </mxCell>
        <mxCell id="QMrxIAQurazq6CiOPDvt-28" value="+ comentario: &amp;lt;string&amp;gt;" style="text;html=1;strokeColor=none;fillColor=none;align=left;verticalAlign=top;spacingLeft=4;spacingRight=4;whiteSpace=wrap;overflow=hidden;rotatable=0;points=[[0,0.5],[1,0.5]];portConstraint=eastwest;" vertex="1" parent="QMrxIAQurazq6CiOPDvt-24">
          <mxGeometry x="1" y="104" width="209" height="26" as="geometry" />
        </mxCell>
        <mxCell id="78961159f06e98e8-30" value="Usuarios [1M]" style="swimlane;html=1;fontStyle=1;align=center;verticalAlign=top;childLayout=stackLayout;horizontal=1;startSize=26;horizontalStack=0;resizeParent=1;resizeLast=0;collapsible=1;marginBottom=0;swimlaneFillColor=#ffffff;rounded=0;shadow=0;comic=0;labelBackgroundColor=none;strokeWidth=1;fillColor=none;fontFamily=Verdana;fontSize=12" parent="1" vertex="1">
          <mxGeometry x="655" y="87" width="160" height="346" as="geometry" />
        </mxCell>
        <mxCell id="QMrxIAQurazq6CiOPDvt-57" value="+ _id: &amp;lt;objectId&amp;gt;" style="text;html=1;strokeColor=none;fillColor=none;align=left;verticalAlign=top;spacingLeft=4;spacingRight=4;whiteSpace=wrap;overflow=hidden;rotatable=0;points=[[0,0.5],[1,0.5]];portConstraint=eastwest;" vertex="1" parent="78961159f06e98e8-30">
          <mxGeometry y="26" width="160" height="26" as="geometry" />
        </mxCell>
        <mxCell id="78961159f06e98e8-31" value="+ identificacion: &amp;lt;string&amp;gt;" style="text;html=1;strokeColor=none;fillColor=none;align=left;verticalAlign=top;spacingLeft=4;spacingRight=4;whiteSpace=wrap;overflow=hidden;rotatable=0;points=[[0,0.5],[1,0.5]];portConstraint=eastwest;" parent="78961159f06e98e8-30" vertex="1">
          <mxGeometry y="52" width="160" height="26" as="geometry" />
        </mxCell>
        <mxCell id="78961159f06e98e8-32" value="+ nombres: &amp;lt;string&amp;gt;" style="text;html=1;strokeColor=none;fillColor=none;align=left;verticalAlign=top;spacingLeft=4;spacingRight=4;whiteSpace=wrap;overflow=hidden;rotatable=0;points=[[0,0.5],[1,0.5]];portConstraint=eastwest;" parent="78961159f06e98e8-30" vertex="1">
          <mxGeometry y="78" width="160" height="26" as="geometry" />
        </mxCell>
        <mxCell id="78961159f06e98e8-33" value="+ apellidos: &amp;lt;string&amp;gt;" style="text;html=1;strokeColor=none;fillColor=none;align=left;verticalAlign=top;spacingLeft=4;spacingRight=4;whiteSpace=wrap;overflow=hidden;rotatable=0;points=[[0,0.5],[1,0.5]];portConstraint=eastwest;" parent="78961159f06e98e8-30" vertex="1">
          <mxGeometry y="104" width="160" height="26" as="geometry" />
        </mxCell>
        <mxCell id="78961159f06e98e8-34" value="+ nombre_usuario: &amp;lt;string&amp;gt;" style="text;html=1;strokeColor=none;fillColor=none;align=left;verticalAlign=top;spacingLeft=4;spacingRight=4;whiteSpace=wrap;overflow=hidden;rotatable=0;points=[[0,0.5],[1,0.5]];portConstraint=eastwest;" parent="78961159f06e98e8-30" vertex="1">
          <mxGeometry y="130" width="160" height="26" as="geometry" />
        </mxCell>
        <mxCell id="QMrxIAQurazq6CiOPDvt-62" value="+ contraseña: &amp;lt;string&amp;gt;" style="text;html=1;strokeColor=none;fillColor=none;align=left;verticalAlign=top;spacingLeft=4;spacingRight=4;whiteSpace=wrap;overflow=hidden;rotatable=0;points=[[0,0.5],[1,0.5]];portConstraint=eastwest;" vertex="1" parent="78961159f06e98e8-30">
          <mxGeometry y="156" width="160" height="26" as="geometry" />
        </mxCell>
        <mxCell id="78961159f06e98e8-36" value="+ tipo_relacion: &amp;lt;string&amp;gt;" style="text;html=1;strokeColor=none;fillColor=none;align=left;verticalAlign=top;spacingLeft=4;spacingRight=4;whiteSpace=wrap;overflow=hidden;rotatable=0;points=[[0,0.5],[1,0.5]];portConstraint=eastwest;" parent="78961159f06e98e8-30" vertex="1">
          <mxGeometry y="182" width="160" height="26" as="geometry" />
        </mxCell>
        <mxCell id="78961159f06e98e8-37" value="+ email: &amp;lt;email&amp;gt;" style="text;html=1;strokeColor=none;fillColor=none;align=left;verticalAlign=top;spacingLeft=4;spacingRight=4;whiteSpace=wrap;overflow=hidden;rotatable=0;points=[[0,0.5],[1,0.5]];portConstraint=eastwest;" parent="78961159f06e98e8-30" vertex="1">
          <mxGeometry y="208" width="160" height="26" as="geometry" />
        </mxCell>
        <mxCell id="QMrxIAQurazq6CiOPDvt-58" value="Ciudad [1]" style="swimlane;html=1;fontStyle=1;align=center;verticalAlign=top;childLayout=stackLayout;horizontal=1;startSize=26;horizontalStack=0;resizeParent=0;resizeLast=0;collapsible=1;marginBottom=0;marginLeft=1;swimlaneFillColor=#ffffff;rounded=0;shadow=1;comic=0;labelBackgroundColor=none;strokeWidth=1;fillColor=none;fontFamily=Verdana;fontSize=12;strokeColor=#009900;" vertex="1" parent="78961159f06e98e8-30">
          <mxGeometry y="234" width="160" height="112" as="geometry">
            <mxRectangle y="78" width="210" height="30" as="alternateBounds" />
          </mxGeometry>
        </mxCell>
        <mxCell id="QMrxIAQurazq6CiOPDvt-59" value="+ nombre: &amp;lt;string&amp;gt;" style="text;html=1;strokeColor=none;fillColor=none;align=left;verticalAlign=top;spacingLeft=4;spacingRight=4;whiteSpace=wrap;overflow=hidden;rotatable=0;points=[[0,0.5],[1,0.5]];portConstraint=eastwest;" vertex="1" parent="QMrxIAQurazq6CiOPDvt-58">
          <mxGeometry x="1" y="26" width="159" height="26" as="geometry" />
        </mxCell>
        <mxCell id="QMrxIAQurazq6CiOPDvt-60" value="+ departamento: &amp;lt;string&amp;gt;" style="text;html=1;strokeColor=none;fillColor=none;align=left;verticalAlign=top;spacingLeft=4;spacingRight=4;whiteSpace=wrap;overflow=hidden;rotatable=0;points=[[0,0.5],[1,0.5]];portConstraint=eastwest;" vertex="1" parent="QMrxIAQurazq6CiOPDvt-58">
          <mxGeometry x="1" y="52" width="159" height="26" as="geometry" />
        </mxCell>
        <mxCell id="QMrxIAQurazq6CiOPDvt-61" value="+ pais: &amp;lt;string&amp;gt;" style="text;html=1;strokeColor=none;fillColor=none;align=left;verticalAlign=top;spacingLeft=4;spacingRight=4;whiteSpace=wrap;overflow=hidden;rotatable=0;points=[[0,0.5],[1,0.5]];portConstraint=eastwest;" vertex="1" parent="QMrxIAQurazq6CiOPDvt-58">
          <mxGeometry x="1" y="78" width="159" height="26" as="geometry" />
        </mxCell>
        <mxCell id="QMrxIAQurazq6CiOPDvt-50" value="" style="edgeStyle=orthogonalEdgeStyle;fontSize=12;html=1;endArrow=ERoneToMany;rounded=0;exitX=1;exitY=0.5;exitDx=0;exitDy=0;entryX=0;entryY=0.5;entryDx=0;entryDy=0;" edge="1" parent="1" source="QMrxIAQurazq6CiOPDvt-21" target="78961159f06e98e8-32">
          <mxGeometry width="100" height="100" relative="1" as="geometry">
            <mxPoint x="615" y="514" as="sourcePoint" />
            <mxPoint x="635" y="264" as="targetPoint" />
            <Array as="points">
              <mxPoint x="575" y="389" />
              <mxPoint x="575" y="178" />
            </Array>
          </mxGeometry>
        </mxCell>
        <mxCell id="QMrxIAQurazq6CiOPDvt-52" value="" style="edgeStyle=orthogonalEdgeStyle;fontSize=12;html=1;endArrow=ERzeroToMany;endFill=1;rounded=0;exitX=1;exitY=0.5;exitDx=0;exitDy=0;" edge="1" parent="1" source="QMrxIAQurazq6CiOPDvt-17">
          <mxGeometry width="100" height="100" relative="1" as="geometry">
            <mxPoint x="555" y="204" as="sourcePoint" />
            <mxPoint x="655" y="152" as="targetPoint" />
            <Array as="points">
              <mxPoint x="555" y="337" />
              <mxPoint x="555" y="152" />
            </Array>
          </mxGeometry>
        </mxCell>
        <mxCell id="QMrxIAQurazq6CiOPDvt-55" value="" style="edgeStyle=orthogonalEdgeStyle;fontSize=12;html=1;endArrow=ERzeroToMany;endFill=1;rounded=0;entryX=0;entryY=0.5;entryDx=0;entryDy=0;exitX=1.008;exitY=0.873;exitDx=0;exitDy=0;exitPerimeter=0;" edge="1" parent="1" source="QMrxIAQurazq6CiOPDvt-25" target="78961159f06e98e8-34">
          <mxGeometry width="100" height="100" relative="1" as="geometry">
            <mxPoint x="495" y="662.47" as="sourcePoint" />
            <mxPoint x="655" y="477.47" as="targetPoint" />
            <Array as="points">
              <mxPoint x="605" y="701" />
              <mxPoint x="605" y="230" />
            </Array>
          </mxGeometry>
        </mxCell>
      </root>
    </mxGraphModel>
  </diagram>
</mxfile>
